Coordinates
version=1
nRows=40
nColumns=38
inDegrees=no

Units are S.I. units (second, meters, Newtons, ...)
If the header above contains a line with 'inDegrees', this indicates whether rotational values are in degrees (yes) or radians (no).

endheader
time	pelvis_tilt	pelvis_list	pelvis_rotation	pelvis_tx	pelvis_ty	pelvis_tz	hip_flexion_r	hip_adduction_r	hip_rotation_r	knee_angle_r	ankle_angle_r	subtalar_angle_r	mtp_angle_r	hip_flexion_l	hip_adduction_l	hip_rotation_l	knee_angle_l	ankle_angle_l	subtalar_angle_l	mtp_angle_l	lumbar_extension	lumbar_bending	lumbar_rotation	arm_flex_r	arm_add_r	arm_rot_r	elbow_flex_r	pro_sup_r	wrist_flex_r	wrist_dev_r	arm_flex_l	arm_add_l	arm_rot_l	elbow_flex_l	pro_sup_l	wrist_flex_l	wrist_dev_l
0	-2.14922	1.52603	-2.35471	0.597738	-0.436623	0.918315	0.51521	-0.194322	-0.377292	0.550325	0.0646336	0	0	-0.159815	-0.0542701	-0.00519622	0.776998	0.103451	0	0	-0.0856488	0.0219345	-0.216139	-0.181309	-0.148072	0.0452355	0.473414	1.12673	0	0	0.0487063	-0.270067	0.32973	0.67965	1.06524	0	0
0.01	-2.16926	1.53257	-2.34181	0.599041	-0.424448	0.919648	0.514488	-0.183768	-0.367898	0.562699	0.0570941	0	0	-0.122341	-0.0571461	0.00651244	0.842658	0.05175	0	0	-0.0784814	0.0286068	-0.208647	-0.1746	-0.153486	0.0659944	0.458665	1.12117	0	0	0.0416432	-0.261043	0.324543	0.671423	1.05009	0	0
0.02	-2.27926	1.53899	-2.23867	0.600484	-0.412183	0.921201	0.50591	-0.170637	-0.366217	0.56617	0.0532364	0	0	-0.086187	-0.0620603	0.0174695	0.906721	-0.00091348	0	0	-0.0746246	0.0376225	-0.202654	-0.167242	-0.159801	0.0919916	0.445966	1.10497	0	0	0.0322857	-0.252819	0.316478	0.667944	1.02709	0	0
0.03	-2.4656	1.54435	-2.05893	0.602018	-0.400234	0.9228	0.492394	-0.156683	-0.369462	0.562437	0.052615	0	0	-0.0493361	-0.0669012	0.0284095	0.969965	-0.0539093	0	0	-0.072149	0.0467028	-0.198569	-0.16055	-0.172849	0.16044	0.441911	1.02016	0	0	0.021934	-0.249148	0.320994	0.670944	0.959801	0	0
0.04	-2.67032	1.5487	-1.86005	0.603522	-0.388561	0.924409	0.476859	-0.143833	-0.375264	0.553695	0.0544256	0	0	-0.0111396	-0.069555	0.0399247	1.02956	-0.108455	0	0	-0.0698605	0.0547085	-0.194329	-0.149879	-0.172422	0.15133	0.422159	1.07075	0	0	0.013417	-0.239399	0.303248	0.664267	0.967655	0	0
0.05	-2.9076	1.55072	-1.62782	0.604881	-0.377161	0.926092	0.45928	-0.132131	-0.381392	0.542922	0.0578535	0	0	0.0253033	-0.0702302	0.0516413	1.0835	-0.162649	0	0	-0.0682607	0.0612746	-0.191906	-0.143527	-0.183333	0.206497	0.424541	1.00085	0	0	0.00507931	-0.23696	0.312095	0.665297	0.89495	0	0
0.06	-3.12122	1.55054	-1.41857	0.606109	-0.365919	0.927997	0.440561	-0.121287	-0.385504	0.53198	0.0620764	0	0	0.059047	-0.0686449	0.0640358	1.13176	-0.210969	0	0	-0.068303	0.0668692	-0.188688	-0.137552	-0.187672	0.216042	0.424886	0.9945	0	0	-8.65212e-05	-0.230727	0.309198	0.657759	0.873297	0	0
0.07	3.0058	1.54811	-1.26626	0.60722	-0.354848	0.930209	0.420475	-0.110524	-0.386225	0.521462	0.0663376	0	0	0.0899796	-0.0653656	0.0770274	1.17766	-0.239489	0	0	-0.0703886	0.0717847	-0.185348	-0.132043	-0.191678	0.222165	0.426177	0.989646	0	0	-0.00297634	-0.224609	0.308023	0.647105	0.859755	0	0
0.08	2.92262	1.54528	-1.18718	0.608281	-0.343965	0.932588	0.401218	-0.100729	-0.383924	0.51287	0.0711115	0	0	0.120093	-0.0606967	0.0885371	1.22182	-0.242443	0	0	-0.0732969	0.0755841	-0.181333	-0.126759	-0.195481	0.228547	0.42776	0.983603	0	0	-0.00472535	-0.219061	0.308436	0.635668	0.851541	0	0
0.09	2.87832	1.54138	-1.14731	0.609372	-0.333164	0.935207	0.379816	-0.0905401	-0.379886	0.502045	0.0755259	0	0	0.147995	-0.0567998	0.0973962	1.26157	-0.22638	0	0	-0.0779418	0.0790603	-0.175202	-0.121174	-0.19329	0.198413	0.424314	1.03188	0	0	-0.00395539	-0.216097	0.322026	0.623999	0.821664	0	0
0.1	2.90327	1.53842	-1.17761	0.610484	-0.322442	0.937829	0.358735	-0.083256	-0.376016	0.491658	0.0808351	0	0	0.174722	-0.0511738	0.102992	1.2956	-0.20209	0	0	-0.0824224	0.0797669	-0.169692	-0.116563	-0.195415	0.196092	0.428257	1.03159	0	0	-0.00552019	-0.212909	0.326704	0.61422	0.816308	0	0
0.11	2.95521	1.53584	-1.23502	0.611636	-0.311805	0.940443	0.336592	-0.0771969	-0.372167	0.478806	0.0855428	0	0	0.20062	-0.045109	0.106191	1.32416	-0.17744	0	0	-0.0868967	0.078824	-0.164797	-0.112563	-0.197282	0.193364	0.433659	1.03104	0	0	-0.0083289	-0.210965	0.33077	0.607145	0.813313	0	0
0.12	3.02328	1.53454	-1.30917	0.612863	-0.301293	0.942897	0.315668	-0.0727267	-0.36906	0.465311	0.0892805	0	0	0.227269	-0.0384497	0.107008	1.34736	-0.158374	0	0	-0.0903483	0.0763253	-0.15994	-0.108335	-0.198727	0.191175	0.438956	1.02951	0	0	-0.0125572	-0.210059	0.333846	0.603104	0.812169	0	0
0.13	3.08476	1.53365	-1.37741	0.614203	-0.290884	0.945236	0.294677	-0.0678134	-0.365402	0.449414	0.0919094	0	0	0.25409	-0.0327437	0.105907	1.36519	-0.144422	0	0	-0.0934658	0.0735757	-0.154677	-0.10427	-0.199878	0.187851	0.445697	1.02594	0	0	-0.0180354	-0.210299	0.336742	0.602658	0.812367	0	0
0.14	-3.1408	1.53332	-1.44275	0.615674	-0.280559	0.947406	0.274496	-0.0627058	-0.361142	0.432953	0.0944347	0	0	0.281048	-0.0281388	0.102879	1.37811	-0.135363	0	0	-0.0960743	0.0705101	-0.14873	-0.10088	-0.201263	0.184076	0.455447	1.02154	0	0	-0.0247216	-0.211296	0.338431	0.605433	0.813936	0	0
0.15	-3.08794	1.53263	-1.50429	0.617259	-0.270307	0.949439	0.254099	-0.0572377	-0.356247	0.416281	0.0968056	0	0	0.306916	-0.0251349	0.0979009	1.38614	-0.130254	0	0	-0.0991482	0.0674563	-0.142232	-0.0977145	-0.202954	0.181712	0.466125	1.01618	0	0	-0.0324711	-0.212913	0.338798	0.610847	0.816812	0	0
0.16	-3.02272	1.53152	-1.5795	0.618943	-0.260085	0.951326	0.234005	-0.0527452	-0.3511	0.400785	0.0989893	0	0	0.331225	-0.0229252	0.0906515	1.38929	-0.126771	0	0	-0.10256	0.0635265	-0.13488	-0.0938528	-0.204656	0.181593	0.475541	1.00906	0	0	-0.0405604	-0.214531	0.33793	0.616225	0.82078	0	0
0.17	-3.00438	1.52687	-1.6088	0.620844	-0.249753	0.953461	0.206267	-0.0437001	-0.338273	0.37614	0.0966667	0	0	0.349512	-0.0243655	0.0819419	1.38688	-0.121851	0	0	-0.110371	0.0612239	-0.126044	-0.0894531	-0.202093	0.155203	0.483751	1.04198	0	0	-0.048141	-0.213098	0.323804	0.618552	0.863592	0	0
0.18	-2.9591	1.52238	-1.66498	0.622714	-0.239518	0.955334	0.181052	-0.0382858	-0.327953	0.356419	0.0966044	0	0	0.366967	-0.0245551	0.0723187	1.38057	-0.116078	0	0	-0.117561	0.0569184	-0.11808	-0.0846357	-0.202495	0.150038	0.492945	1.04158	0	0	-0.0560749	-0.214353	0.317473	0.625472	0.878039	0	0
0.19	-2.91652	1.51655	-1.71902	0.624575	-0.229328	0.957138	0.155153	-0.0341148	-0.316717	0.337766	0.0970895	0	0	0.381445	-0.0249712	0.0614322	1.37021	-0.107508	0	0	-0.126174	0.0519364	-0.109787	-0.0791396	-0.203041	0.146193	0.502443	1.04145	0	0	-0.0639822	-0.215611	0.310478	0.632952	0.891894	0	0
0.2	-2.88583	1.50887	-1.76209	0.62648	-0.219109	0.958907	0.127437	-0.0304523	-0.303554	0.319368	0.0977316	0	0	0.392206	-0.0258342	0.0493556	1.35588	-0.097183	0	0	-0.13672	0.0465414	-0.100969	-0.0728548	-0.203838	0.143876	0.512122	1.04177	0	0	-0.0720513	-0.2166	0.30214	0.640638	0.905732	0	0
0.21	-2.86161	1.50089	-1.79857	0.628365	-0.208975	0.960487	0.100169	-0.0276388	-0.289845	0.302287	0.0985505	0	0	0.401453	-0.0269939	0.0366501	1.33833	-0.084501	0	0	-0.14759	0.0407753	-0.0925033	-0.0659871	-0.204687	0.143821	0.519598	1.04291	0	0	-0.0802899	-0.21756	0.292924	0.648497	0.918575	0	0
0.22	-2.84164	1.49333	-1.82995	0.630166	-0.198934	0.961828	0.0742992	-0.0256984	-0.276525	0.287035	0.0996907	0	0	0.410095	-0.0283039	0.0240133	1.31779	-0.0705525	0	0	-0.157963	0.0349308	-0.0849411	-0.0588574	-0.205506	0.144888	0.52688	1.04343	0	0	-0.0882773	-0.218423	0.283885	0.655929	0.929311	0	0
0.23	-2.79805	1.48481	-1.88084	0.632796	-0.189103	0.962904	0.0507675	-0.0223065	-0.259006	0.276809	0.0987914	0	0	0.419619	-0.03744	0.0149051	1.29281	-0.0506936	0	0	-0.16832	0.0246719	-0.0798402	-0.0525686	-0.204327	0.145779	0.534665	1.04213	0	0	-0.0951591	-0.221195	0.275677	0.662899	0.936638	0	0
0.24	-2.79892	1.47997	-1.89228	0.633344	-0.178902	0.963801	0.0288658	-0.0259451	-0.25657	0.265439	0.10688	0	0	0.42617	-0.0289587	0.000540176	1.26747	-0.043188	0	0	-0.175288	0.0224206	-0.0726275	-0.0449439	-0.206922	0.147698	0.541393	1.03891	0	0	-0.103326	-0.220173	0.269242	0.669033	0.940095	0	0
0.25	-2.79147	1.4694	-1.90454	0.635921	-0.168982	0.964949	-0.00313263	-0.0186694	-0.229676	0.243895	0.10091	0	0	0.429128	-0.0415731	-0.00884539	1.23496	-0.0233036	0	0	-0.188594	0.0139966	-0.0689229	-0.0376551	-0.201335	0.128119	0.542526	1.0929	0	0	-0.109069	-0.218745	0.245254	0.671656	0.986164	0	0
0.26	-2.78617	1.4627	-1.9176	0.637324	-0.159008	0.965614	-0.0264973	-0.0185422	-0.218518	0.232856	0.104834	0	0	0.433017	-0.0438455	-0.0221436	1.20109	-0.0118196	0	0	-0.197281	0.00870673	-0.063858	-0.0313312	-0.201837	0.129522	0.548753	1.09841	0	0	-0.114995	-0.218745	0.238193	0.676016	0.992489	0	0
0.27	-2.78294	1.45662	-1.92745	0.638589	-0.149055	0.966095	-0.0487212	-0.01871	-0.209198	0.223353	0.109368	0	0	0.435921	-0.0463204	-0.0356615	1.16409	-0.00106036	0	0	-0.2053	0.00390184	-0.0594781	-0.0254262	-0.202352	0.130873	0.555396	1.10265	0	0	-0.12031	-0.218684	0.23243	0.67969	0.996598	0	0
0.28	-2.77967	1.45109	-1.93633	0.639688	-0.139089	0.966424	-0.0700889	-0.0192153	-0.200481	0.214646	0.113944	0	0	0.437701	-0.0484147	-0.049409	1.12418	0.00950587	0	0	-0.212597	-0.000606595	-0.055727	-0.0197763	-0.202904	0.132889	0.56183	1.10593	0	0	-0.125123	-0.218491	0.227472	0.682752	0.998555	0	0
0.29	-2.77768	1.446	-1.94428	0.640761	-0.129075	0.966595	-0.0903262	-0.0199045	-0.191246	0.206858	0.118494	0	0	0.438006	-0.0509053	-0.0651063	1.08142	0.0207107	0	0	-0.21952	-0.004808	-0.0510468	-0.0146537	-0.203652	0.134605	0.569134	1.10793	0	0	-0.129349	-0.218169	0.223391	0.68549	0.998992	0	0
0.3	-2.8084	1.44129	-1.92194	0.64195	-0.118354	0.966453	-0.112574	-0.0164447	-0.181761	0.198672	0.123396	0	0	0.438255	-0.0778061	-0.118056	1.04513	0.0309355	0	0	-0.22565	-0.00478258	-0.0432713	-0.011797	-0.205825	0.136791	0.577386	1.10996	0	0	-0.13525	-0.217033	0.220128	0.688528	0.998815	0	0
0.31	-2.79916	1.43815	-1.93563	0.642709	-0.108402	0.966194	-0.128535	-0.0184018	-0.176245	0.195293	0.129856	0	0	0.438107	-0.078742	-0.137028	0.998212	0.042241	0	0	-0.229947	-0.00880858	-0.0391141	-0.00734535	-0.206418	0.138202	0.582749	1.11148	0	0	-0.138382	-0.216261	0.217443	0.689212	0.998097	0	0
0.32	-2.78716	1.43587	-1.95181	0.643327	-0.098394	0.965734	-0.142942	-0.0207933	-0.171719	0.192974	0.137232	0	0	0.437511	-0.0790177	-0.15761	0.948835	0.0529458	0	0	-0.233098	-0.0128307	-0.035003	-0.00304386	-0.20697	0.140059	0.587308	1.11111	0	0	-0.141177	-0.215217	0.214973	0.688979	0.996553	0	0
0.33	-2.78938	1.43592	-1.95806	0.642995	-0.0882727	0.965041	-0.155809	-0.0262425	-0.175257	0.189512	0.14877	0	0	0.437798	-0.070258	-0.174745	0.899625	0.0569442	0	0	-0.234503	-0.0126837	-0.0291066	0.00250059	-0.209251	0.142573	0.591698	1.1083	0	0	-0.145351	-0.212141	0.213284	0.688504	0.994582	0	0
0.34	-2.77991	1.43079	-1.9719	0.643626	-0.0779836	0.964677	-0.177782	-0.0287291	-0.165329	0.178574	0.152788	0	0	0.430561	-0.0704419	-0.200816	0.845826	0.067817	0	0	-0.240524	-0.0178864	-0.0243897	0.00691402	-0.205936	0.127426	0.592115	1.14803	0	0	-0.147972	-0.210729	0.208196	0.688317	0.99904	0	0
0.35	-2.76705	1.42779	-1.98825	0.643994	-0.0676228	0.963953	-0.195712	-0.0319245	-0.161299	0.171624	0.159315	0	0	0.425678	-0.0696426	-0.226821	0.792526	0.0780528	0	0	-0.243495	-0.0223503	-0.0205809	0.0106275	-0.205834	0.127166	0.594628	1.1509	0	0	-0.151083	-0.209348	0.205073	0.688014	0.997732	0	0
0.36	-2.75275	1.42512	-2.00524	0.644182	-0.0571332	0.963066	-0.213614	-0.0354026	-0.158734	0.164453	0.166256	0	0	0.420639	-0.0678124	-0.254077	0.739016	0.0872442	0	0	-0.245824	-0.0267284	-0.0176661	0.0145434	-0.205752	0.128729	0.595212	1.1536	0	0	-0.154641	-0.207854	0.201155	0.688301	0.995988	0	0
0.37	-2.7362	1.42335	-2.02372	0.644192	-0.0465425	0.961948	-0.230204	-0.0391616	-0.158258	0.158323	0.174131	0	0	0.416549	-0.064875	-0.281789	0.686051	0.0951879	0	0	-0.246938	-0.0308429	-0.0154013	0.0182093	-0.205625	0.130418	0.595166	1.15548	0	0	-0.158307	-0.206089	0.196734	0.688952	0.99361	0	0
0.38	-2.7191	1.42406	-2.04191	0.644031	-0.035924	0.960477	-0.242929	-0.0422269	-0.160237	0.155076	0.183128	0	0	0.415909	-0.0616683	-0.307422	0.635665	0.103186	0	0	-0.245426	-0.0335374	-0.0134634	0.0212015	-0.205645	0.131438	0.595482	1.15634	0	0	-0.16197	-0.204071	0.193533	0.688743	0.991886	0	0
0.39	-2.64286	1.41647	-2.1191	0.643787	-0.0261096	0.959992	-0.25612	-0.0590885	-0.164625	0.155691	0.193289	0	0	0.389779	-0.0186807	-0.277069	0.531835	0.096098	0	0	-0.250069	-0.0497682	-0.0142583	0.0294891	-0.201212	0.131432	0.589103	1.15571	0	0	-0.162262	-0.204208	0.189972	0.686549	0.989824	0	0
